<svg xmlns="http://www.w3.org/2000/svg" viewBox="0 0 1058.13 1409.79">
    <defs>
        <style>.cls-1{fill:#FF725E;fill-rule:evenodd;}</style>
    </defs>
    <title>lock</title>
    <g id="Capa_2" data-name="Capa 2">
        <g id="Capa_1-2" data-name="Capa 1">
            <path class="cls-1"
                d="M112.07,551.63h834c61.64,0,112.07,50.43,112.07,112.07v634c0,61.64-50.43,112.08-112.07,112.08h-834C50.43,1409.79,0,1359.35,0,1297.71v-634c0-61.64,50.43-112.07,112.07-112.07ZM597.41,973.8v142.51a68.54,68.54,0,0,1-68.34,68.34h0a68.54,68.54,0,0,1-68.34-68.34V973.81a110.37,110.37,0,1,1,136.69,0Z" />
            <path class="cls-1"
                d="M529.06,0h0C751,0,932.63,181.6,932.63,403.56V690a401.66,401.66,0,0,1-8.54,82.43H768.82A251.49,251.49,0,0,0,782.66,690V403.56c0-139.49-114.11-253.6-253.6-253.6h0c-139.49,0-253.6,114.11-253.6,253.6V690a251.49,251.49,0,0,0,13.84,82.43H134A401.66,401.66,0,0,1,125.5,690V403.56C125.5,181.6,307.1,0,529.06,0Z" />
        </g>
    </g>
</svg>