<svg width="188" height="250" viewBox="0 0 188 250" fill="none" xmlns="http://www.w3.org/2000/svg">
<path d="M161.349 11.3559H122.4L120.816 4.24308C120.272 1.76467 118.07 0 115.531 0H71.6565C69.117 0 66.9232 1.76467 66.3709 4.24308L64.7953 11.3559H25.8376C11.5869 11.3559 0 22.9471 0 37.1978V224.159C0 238.409 11.5869 250.001 25.8376 250.001H161.35C175.601 250.001 187.196 238.409 187.196 224.159V37.1978C187.196 22.9471 175.6 11.3559 161.349 11.3559ZM170.306 224.158C170.306 229.094 166.29 233.111 161.349 233.111H25.8371C20.9052 233.111 16.8889 229.094 16.8889 224.158V37.1978C16.8889 32.2617 20.9052 28.2459 25.8371 28.2459H61.0424L60.1439 32.2867C59.7806 33.8904 60.1768 35.5728 61.1996 36.8516C62.2298 38.134 63.789 38.8802 65.4294 38.8802H121.764C123.406 38.8802 124.964 38.134 125.986 36.8516C127.018 35.5691 127.413 33.891 127.051 32.2867L126.152 28.2459H161.349C166.29 28.2459 170.306 32.2622 170.306 37.1978V224.158Z" fill="#1E86B3"/>
</svg>
